<svg xmlns="http://www.w3.org/2000/svg" xmlns:xlink="http://www.w3.org/1999/xlink" width="800" height="800" viewBox="0 0 800 800"><defs><clipPath id="a"><path d="M0,0H800V800H0Z" transform="translate(1112 4)" fill="#1b355d"/></clipPath><clipPath id="b"><path d="M0,0H1356.574V1352.037H0Z" fill="none"/></clipPath></defs><g transform="translate(-1112 -4)" clip-path="url(#a)"><g transform="translate(1201.713 -654.019)"><path d="M0,0H1356.574V1352.037H0Z" fill="none"/><g clip-path="url(#b)"><path d="M679.73,1352.037c-13.423,0-27.231-.405-41.039-1.2v-185.4L609.7,1348.541a690.559,690.559,0,0,1-74.146-11.648l32-202.134L504.334,1329.4a674.868,674.868,0,0,1-68.624-22.073l69.21-213.046-101.7,199.659a683.174,683.174,0,0,1-61.632-31.176l110.533-217.012L308.9,1242.93c-9.991-6.469-19.784-13.175-29.11-19.931-7.272-5.252-15.054-11.186-24.492-18.675l154.7-213L223.711,1177.682c-15.651-14.045-30.763-28.931-44.92-44.245L378.946,933.21,149.8,1099.767c-13.063-16.156-25.086-32.405-35.735-48.3L359.188,873.318l-270.05,137.64c-9.621-16.8-18.452-33.847-26.249-50.655L352.58,812.656,43.13,913.229c-6.04-16.149-11.646-33.186-16.663-50.638l330.161-107.3-343.21,54.37c-3.2-15.792-5.833-32.033-8.064-49.65l362.4-57.416H.637c-.694-17.181-.819-32.65-.385-47.291H386.908L4.886,594.774C6.709,579.595,8.961,564.866,11.579,551l388.513,61.549a285.845,285.845,0,1,0,564.242,55.691h393.315c.287,21.784-.467,43.578-2.242,64.779h-.652l.652.084c-1.451,17.242-3.638,34.757-6.5,52.061-2.838,17.158-6.409,34.538-10.615,51.659l-18.855-3,18.1,5.907c-4.087,16.343-8.873,32.771-14.224,48.831-5.368,16.108-11.445,32.267-18.064,48.027l-35.651-11.6,33.341,17c-6.463,15.005-13.578,29.979-21.146,44.507-7.63,14.647-15.926,29.237-24.659,43.365L1207.55,1004.6l44.986,32.682c-8.85,13.927-16.623,25.412-24.459,36.147-9.377,12.857-20.086,26.306-32.74,41.116l-53.736-39.058,46.977,46.974c-10.24,11.62-21.068,23.066-32.183,34.023-10.89,10.734-22.351,21.29-34.066,31.375l-70.516-70.518,58.654,80.76c-11.464,9.41-23.557,18.643-35.941,27.442-11.973,8.508-24.568,16.858-37.434,24.819l-65.079-89.6L1022.2,1259.3a681.725,681.725,0,0,1-77.86,39.026l-58.6-115.066,39.8,122.53a683.985,683.985,0,0,1-80.086,25.6L799.83,1190.937l23.053,145.689a687.24,687.24,0,0,1-80.134,12.333l-25.981-164.231V1351C704.637,1351.688,692.176,1352.037,679.73,1352.037ZM400.51,610.57,26.317,488.945c3.405-11.811,7.592-24.652,12.8-39.259L413.157,571.262a282.652,282.652,0,0,0-12.647,39.307Zm14.5-44.027h0L64.695,388c5.3-11.158,11.161-22.632,17.416-34.1l349.7,178.221a283.265,283.265,0,0,0-16.8,34.423Zm21.264-41.252L118.665,294.475c1-1.453,2-2.934,2.976-4.366l.023-.034.018-.027c2.549-3.753,5.185-7.634,7.924-11.387,2.057-2.815,4.226-5.584,6.323-8.262l.016-.021c1.139-1.455,2.317-2.959,3.464-4.452L456.755,496.56c-1.005,1.247-2.046,2.5-3.052,3.7-2.06,2.471-4.189,5.025-6.133,7.711-3.676,5.038-6.958,10.332-10.133,15.451q-.579.934-1.159,1.868Zm27.537-37.485L186.654,210.585c7.415-7.8,15.087-15.49,22.8-22.86l276.827,276.9a281.6,281.6,0,0,0-22.468,23.176Zm33.51-32.313-230.267-317c7.485-5.689,15.245-11.31,23.722-17.187L520.847,438.056a284.081,284.081,0,0,0-23.521,17.437Zm353.4-7.681v0c-.648-.486-1.267-1.008-1.865-1.513-.637-.537-1.293-1.091-1.981-1.6-.472-.341-.97-.65-1.452-.949l-.005,0c-.437-.271-.889-.552-1.32-.855l229.865-316.481c.637.455,1.317.906,1.917,1.3.661.439,1.346.893,2.015,1.373.449.329.9.684,1.3,1l.005,0c.476.374.969.762,1.472,1.124l-229.95,316.6ZM535.536,428.768,357.933,80.124c8.051-4.3,16.039-8.233,23.472-11.848L558.839,416.6c-7.76,3.6-15.6,7.695-23.3,12.165Zm278.248-4.484h0c-2.961-1.591-6.468-3.453-10.019-5.186L981.18,70.786c1.337.666,2.7,1.329,4.025,1.971l.013.006c2,.97,4.063,1.974,6.083,3.009ZM577.71,408.7,457.023,37.2c7.81-2.687,14.863-5.091,22.1-7.312l120.705,371.6c-8.6,2.473-15.626,4.764-22.116,7.212ZM773.765,406.4h0c-3.782-1.331-7.655-2.471-11.4-3.574q-1.116-.328-2.233-.659L880.819,30.607c1.5.467,3.065.94,4.442,1.357,3.017.915,6.137,1.861,9.193,2.876L773.765,406.395Zm-151.1-10.409h0L561.6,10.308c7.394-1.283,13.939-2.333,20.008-3.213l61.047,385.577c-6.282.8-12.821,1.883-19.991,3.313Zm108.726-.752h0l-2.4-.448h-.008c-4.781-.9-9.725-1.825-14.609-2.429L775.388,6.861c5.455.77,11.2,1.66,17.064,2.644L731.389,395.233Zm-62.3-4.72h0V.017C670.108.005,671.112,0,672.161,0c2.939,0,5.91.042,8.783.083h.006c1.776.025,3.612.051,5.42.067V390.28c-1.413-.037-2.867-.055-4.446-.055C677.717,390.224,673.452,390.361,669.089,390.513Z" transform="translate(-1.134 0)" fill="#263f65"/></g></g></g></svg>