<svg xmlns="http://www.w3.org/2000/svg" xmlns:xlink="http://www.w3.org/1999/xlink" width="1000" height="1000" viewBox="0 0 1000 1000"><defs><clipPath id="a"><rect width="1000" height="1000" transform="translate(921.107 0.7)" fill="#1b355d"/></clipPath><clipPath id="b"><path d="M0,0H786V783H0Z" transform="translate(0 0)" fill="none"/></clipPath></defs><g transform="translate(-920)"><g transform="translate(-1.107 -0.7)" clip-path="url(#a)"><g transform="translate(1325 -251)"><path d="M0,0H786V783H0Z" transform="translate(0 0)" fill="none"/><g clip-path="url(#b)"><path d="M104.657,363.958,0,259.311,43.615,215.69,104.628,276.7,384.269,0a387.069,387.069,0,0,1,39.893,47.342L104.657,363.958" transform="translate(288.258 116.441)" fill="#263f65"/><path d="M393.794,783c-7.773,0-15.771-.234-23.771-.7V674.932l-16.8,106.043a400.11,400.11,0,0,1-42.956-6.745l18.541-117.062-36.627,112.72a391.063,391.063,0,0,1-39.757-12.784l40.1-123.38L233.6,749.353A395.834,395.834,0,0,1,197.9,731.3l64.037-125.677L178.959,719.814c-5.8-3.753-11.471-7.636-16.864-11.542-4.2-3.035-8.713-6.472-14.19-10.815L237.529,574.1,129.605,682.027c-9.071-8.137-17.826-16.759-26.023-25.624L219.54,540.446,86.785,636.9c-7.571-9.361-14.536-18.771-20.7-27.969L208.094,505.761,51.641,585.473c-5.574-9.732-10.69-19.6-15.207-29.336L204.265,470.63,24.988,528.875c-3.5-9.359-6.749-19.225-9.653-29.327L206.61,437.408,7.774,468.9c-1.852-9.148-3.38-18.553-4.672-28.754L213.056,406.89H.369c-.4-9.953-.474-18.911-.223-27.387H224.154L2.831,344.449c1.056-8.788,2.361-17.317,3.877-25.352l225.084,35.645a165.6,165.6,0,1,0,326.891,32.252H786.547c.166,12.62-.271,25.241-1.3,37.516h-.378l.378.049a389.42,389.42,0,0,1-9.915,60.067l-10.922-1.735,10.487,3.421A389.051,389.051,0,0,1,756.191,542.4l-20.654-6.716,19.317,9.846a392.145,392.145,0,0,1-26.538,50.89L699.588,581.79l26.063,18.927c-5.122,8.058-9.625,14.709-14.17,20.933-5.433,7.447-11.637,15.236-18.968,23.811l-31.132-22.619,27.216,27.2a393.306,393.306,0,0,1-38.381,37.874L609.363,647.08l33.981,46.77a393.735,393.735,0,0,1-42.511,30.266l-37.7-51.888,29.077,57.063a395.086,395.086,0,0,1-45.108,22.6l-33.953-66.638,23.058,70.961a396.223,396.223,0,0,1-46.4,14.827L463.379,689.7l13.355,84.372a398.452,398.452,0,0,1-46.426,7.143l-15.052-95.111V782.4C408.226,782.8,401.005,783,393.794,783ZM232.034,353.6,15.247,283.162c1.971-6.836,4.4-14.273,7.414-22.737l216.7,70.408a163.688,163.688,0,0,0-7.327,22.763Zm8.4-25.5L37.481,224.7c3.069-6.456,6.463-13.1,10.09-19.751l202.6,103.212a163.983,163.983,0,0,0-9.73,19.934h0Zm12.318-23.889L68.748,170.538c.563-.821,1.132-1.657,1.681-2.466l.037-.054c1.488-2.19,3.024-4.451,4.621-6.639,1.192-1.631,2.449-3.235,3.664-4.786l.01-.013c.659-.841,1.34-1.71,2-2.575L264.619,287.571c-.58.719-1.18,1.438-1.76,2.134l0,0c-1.2,1.434-2.43,2.914-3.557,4.471-2.128,2.915-4.028,5.976-5.864,8.937l-.678,1.093ZM268.709,282.5,108.137,121.955c4.3-4.525,8.748-8.978,13.211-13.238L281.726,269.079A163.079,163.079,0,0,0,268.71,282.5Zm19.413-18.714L154.718,80.205c4.344-3.3,8.84-6.555,13.744-9.953L301.75,253.69a164.449,164.449,0,0,0-13.627,10.1Zm204.739-4.448h0c-.373-.28-.729-.58-1.073-.87-.371-.313-.753-.634-1.154-.93-.273-.2-.561-.376-.839-.549l-.006,0c-.253-.157-.514-.319-.762-.494L622.2,73.209c.366.261.742.511,1.107.752.386.256.784.52,1.171.8.254.186.505.384.748.575.279.219.567.445.861.657L492.862,259.34Zm-182.6-11.029L207.366,46.4c4.668-2.49,9.294-4.769,13.6-6.862l102.8,201.725c-4.5,2.089-9.044,4.459-13.5,7.045Zm161.2-2.6h0c-1.711-.919-3.738-2-5.8-3L568.442,40.994c.771.383,1.558.766,2.319,1.135l.027.013c1.154.56,2.347,1.14,3.518,1.739L471.461,245.714Zm-136.767-9.023h0L264.774,21.544c4.535-1.56,8.628-2.954,12.8-4.235l69.93,215.205c-4.992,1.437-9.063,2.763-12.812,4.176Zm113.583-1.336h0c-2.185-.769-4.421-1.427-6.584-2.063l-1.315-.388L510.3,17.726c.874.271,1.786.547,2.591.791,1.745.529,3.545,1.075,5.309,1.66l-69.92,215.176Zm-87.54-6.029L325.36,5.97c4.292-.744,8.083-1.352,11.592-1.86l35.367,223.3c-3.638.463-7.426,1.091-11.581,1.919Zm62.99-.436h0q-.6-.11-1.2-.224l-.214-.04c-2.762-.518-5.617-1.053-8.438-1.4L449.218,3.974c3.162.447,6.488.962,9.886,1.531Zm-36.094-2.733h0V.01C388.233,0,388.81,0,389.4,0c1.7,0,3.409.024,5.066.048,1.042.015,2.12.03,3.183.039V226.022c-.815-.021-1.657-.032-2.575-.032C392.631,225.989,390.259,226.065,387.634,226.157Z" transform="translate(-0.582 0)" fill="#263f65"/></g></g></g></g></svg>