<svg xmlns="http://www.w3.org/2000/svg" xmlns:xlink="http://www.w3.org/1999/xlink" width="24" height="24" viewBox="0 0 24 24"><defs><clipPath id="a"><path d="M0,0H24V24H0Z" fill="none"/></clipPath></defs><path d="M0,0H24V24H0Z" fill="none"/><g clip-path="url(#a)"><path d="M3.2,11.156,0,7.948,1.332,6.611l1.863,1.87L11.733,0a11.853,11.853,0,0,1,1.218,1.451L3.2,11.156" transform="translate(8.802 3.569)" fill="#e8842d"/><path d="M12.025,24c-.238,0-.482-.007-.727-.022V20.687l-.513,3.25a12.107,12.107,0,0,1-1.312-.206l.566-3.588L8.922,23.6a11.957,11.957,0,0,1-1.214-.392l1.224-3.782-1.8,3.544a12.079,12.079,0,0,1-1.09-.554L8,18.563l-2.534,3.5c-.179-.116-.352-.235-.514-.354-.137-.1-.279-.208-.434-.332L7.253,17.6,3.958,20.9c-.281-.253-.548-.517-.794-.785L6.7,16.566,2.65,19.522c-.233-.289-.445-.577-.632-.857L6.354,15.5,1.577,17.946c-.173-.3-.329-.606-.464-.9l5.124-2.621L.763,16.211c-.107-.287-.206-.589-.3-.9l5.841-1.9-6.071.965c-.057-.281-.1-.569-.143-.881l6.411-1.019H.011C0,12.159,0,11.884,0,11.632H6.844L.086,10.558c.034-.283.073-.537.118-.777l6.873,1.093a5.082,5.082,0,0,0,1.958,5.234,5.007,5.007,0,0,0,2.968.97,5.061,5.061,0,0,0,5.055-5.215h6.958c0,.391-.009.778-.04,1.15h-.011l.011,0a11.925,11.925,0,0,1-.3,1.841l-.334-.053.32.1a11.9,11.9,0,0,1-.571,1.719l-.63-.206.59.3a11.981,11.981,0,0,1-.81,1.559l-.877-.448.8.58c-.159.251-.3.455-.433.642-.171.234-.36.473-.579.73l-.95-.693.83.834a12.017,12.017,0,0,1-1.172,1.161l-1.247-1.252,1.038,1.434a11.98,11.98,0,0,1-1.3.928L17.2,20.6l.887,1.749a12.082,12.082,0,0,1-1.377.693L15.669,21l.7,2.175a12.2,12.2,0,0,1-1.417.454l-.807-2.494.408,2.586a12.163,12.163,0,0,1-1.418.219l-.46-2.915v2.951C12.459,23.994,12.24,24,12.025,24ZM7.085,10.839h0L.466,8.679c.065-.224.139-.452.226-.7l6.617,2.158a4.969,4.969,0,0,0-.224.7Zm.257-.782h0l-6.2-3.169c.1-.206.2-.409.308-.6L7.638,9.446a5.128,5.128,0,0,0-.3.61Zm.376-.732h0L2.1,5.227l.051-.075c.046-.068.093-.138.143-.206.036-.049.074-.1.111-.145l.063-.081L8.08,8.815l-.049.06c-.038.046-.077.093-.113.142-.068.094-.129.193-.188.289l-.011.019ZM8.2,8.659h0L3.3,3.739c.136-.144.272-.28.4-.406L8.6,8.248a4.923,4.923,0,0,0-.4.41ZM8.8,8.086h0L4.724,2.459c.145-.109.286-.212.42-.3l4.07,5.622a4.986,4.986,0,0,0-.415.309Zm6.252-.137h0l-.034-.027-.034-.028-.024-.016-.024-.016L19,2.244l.04.027.029.02.019.015.03.023L15.05,7.948ZM9.474,7.611h0L6.332,1.423c.136-.073.28-.144.415-.21L9.886,7.4c-.138.065-.276.137-.411.216Zm4.922-.08h0c-.059-.031-.118-.062-.177-.092l3.138-6.182.066.032.114.056L14.4,7.531ZM10.22,7.255h0L8.085.66,8.124.646c.1-.034.225-.076.352-.116l2.135,6.6c-.144.041-.272.083-.39.128Zm3.468-.042h0c-.056-.02-.114-.037-.169-.053l-.071-.021,2.135-6.6.073.022.169.053L13.688,7.213Zm-2.673-.185h0L9.934.183c.141-.025.25-.042.354-.058l1.08,6.845c-.108.014-.223.033-.353.058Zm1.923-.013h0l-.031-.006c-.088-.017-.179-.034-.269-.045L13.717.122c.091.013.19.029.3.047l-1.08,6.846Zm-1.1-.084h0V0h.306V6.928h-.079c-.066,0-.132,0-.2,0h-.03Z" transform="translate(-0.018 0)" fill="#e8842d"/></g></svg>